<svg width="1080" height="1080" viewBox="0 0 1080 1080" fill="none" xmlns="http://www.w3.org/2000/svg">
<g clip-path="url(#clip0_1_22)">
<path d="M490.897 182.999H492.821C561.626 182.999 625.634 159.125 673.41 109.425C680.541 103.319 680.757 92.3618 673.873 85.9792L673.41 85.5501C625.607 36.7985 561.599 11 493.742 11H491.818C423.013 11 359.004 39.671 311.228 89.344L308.698 92.0541C303.046 98.1056 304.26 107.798 311.228 112.27C359.004 160.994 423.013 182.972 490.869 182.972L490.897 182.999ZM491.845 39.671H493.769C541.305 39.671 587.146 60.701 624.19 90.1479C628.014 93.1879 628.055 98.9342 624.276 102.031C587.211 132.404 541.259 154.328 492.821 154.328H490.897C443.361 154.328 397.52 133.298 360.476 103.851C356.651 100.811 356.61 95.0648 360.389 91.9683C397.455 61.5947 443.407 39.671 491.845 39.671Z" fill="currentColor"/>
<path d="M873.078 103.679C882.679 98.8868 886.76 87.3521 882.309 77.5881L868.643 47.6059C864.284 38.0421 852.862 34.001 843.459 38.6954C742.189 85.523 684.847 155.276 654.279 204.949C645.688 219.285 638.046 233.62 631.353 247.956C620.838 246.032 609.375 245.083 597.912 245.083C513.823 245.083 438.352 297.629 409.681 375.973C405.86 383.615 375.292 449.547 350.441 484.885C343.748 493.475 334.209 504.938 323.695 518.325C290.254 559.408 238.657 621.519 209.986 696.042C209.038 697.966 208.062 700.812 207.113 702.736C181.315 772.489 185.136 848.937 216.68 915.818C248.223 983.647 303.641 1030.47 374.343 1056.27C404.911 1067.74 437.403 1069.66 469.895 1069.66C586.476 1069.66 692.516 999.907 731.701 890.019C732.65 888.095 732.65 887.146 733.625 885.25C759.424 808.802 760.372 729.51 761.348 675.989C761.348 658.781 761.348 644.445 762.296 632.982C766.117 589.976 785.222 519.274 787.146 510.683C804.354 462.907 802.43 412.259 783.325 365.458C766.117 325.324 736.498 291.884 699.236 269.906C704.006 259.392 709.751 248.877 716.444 238.363C741.294 200.153 789.07 142.811 873.132 103.652L873.078 103.679ZM749.831 501.172L748.882 503.096C747.934 505.968 726.905 583.364 723.084 633.037C722.135 645.448 722.135 660.732 722.135 678.889C721.187 732.383 721.187 805.957 696.337 876.686V877.635C695.388 879.559 695.388 877.635 694.413 878.583C660.024 973.187 569.241 1033.37 468.92 1033.37C441.197 1033.37 413.502 1031.45 386.755 1021.91C326.567 999.934 278.791 956.927 251.068 898.664C224.321 840.373 221.449 776.365 243.426 716.177C244.375 714.253 245.351 712.356 245.351 710.432C272.098 640.679 318.925 584.312 353.314 543.23C364.777 528.894 374.343 517.431 381.985 506.917C410.656 466.783 444.097 394.157 445.045 391.311L445.994 389.387C468.92 325.379 530.083 283.321 597.912 283.321C611.299 283.321 624.659 285.245 638.046 288.09L652.382 291.911L665.769 298.605C741.24 333.969 778.529 422.828 749.858 501.172H749.831Z" fill="currentColor"/>
<path d="M459.023 566.308C492.631 575.313 515.03 612.381 524.035 578.772C533.041 545.164 513.096 510.619 479.488 501.613C445.879 492.608 411.334 512.553 402.329 546.161C393.323 579.769 425.415 557.302 459.023 566.308Z" fill="currentColor"/>
<path d="M621.045 613C654.653 622.005 677.052 659.073 686.057 625.465C695.063 591.856 675.118 557.311 641.51 548.306C607.901 539.3 573.356 559.245 564.351 592.853C555.345 626.462 587.437 603.995 621.045 613Z" fill="currentColor"/>
<path d="M408.272 673.788C399.935 670.858 390.686 675.236 388.909 683.892C383.742 709.05 386.89 735.371 398.128 758.787C411.688 787.04 435.917 808.75 465.483 819.14C495.05 829.53 527.533 827.749 555.787 814.189C579.202 802.95 598.123 784.384 609.831 761.525C613.859 753.66 609.381 744.459 601.045 741.529L504.658 707.658L408.272 673.788Z" fill="currentColor"/>
</g>
<defs>
<clipPath id="clip0_1_22">
<rect width="1080" height="1080" fill="white"/>
</clipPath>
</defs>
</svg>
