<?xml version="1.0" encoding="UTF-8" standalone="no"?>
<!-- Generator: Adobe Illustrator 18.0.0, SVG Export Plug-In . SVG Version: 6.00 Build 0)  -->

<svg
   xmlns:dc="http://purl.org/dc/elements/1.1/"
   xmlns:cc="http://creativecommons.org/ns#"
   xmlns:rdf="http://www.w3.org/1999/02/22-rdf-syntax-ns#"
   xmlns:svg="http://www.w3.org/2000/svg"
   xmlns="http://www.w3.org/2000/svg"
   xmlns:sodipodi="http://sodipodi.sourceforge.net/DTD/sodipodi-0.dtd"
   xmlns:inkscape="http://www.inkscape.org/namespaces/inkscape"
   version="1.1"
   id="Layer_1"
   x="0px"
   y="0px"
   viewBox="0 0 1024 768"
   enable-background="new 0 0 1024 768"
   xml:space="preserve"
   inkscape:version="0.48.5 r10040"
   width="100%"
   height="100%"
   sodipodi:docname="pears logodeep grey.svg"><metadata
     id="metadata41"><rdf:RDF><cc:Work
         rdf:about=""><dc:format>image/svg+xml</dc:format><dc:type
           rdf:resource="http://purl.org/dc/dcmitype/StillImage" /><dc:title></dc:title></cc:Work></rdf:RDF></metadata><defs
     id="defs39" /><sodipodi:namedview
     pagecolor="#ffffff"
     bordercolor="#666666"
     borderopacity="1"
     objecttolerance="10"
     gridtolerance="10"
     guidetolerance="10"
     inkscape:pageopacity="0"
     inkscape:pageshadow="2"
     inkscape:window-width="640"
     inkscape:window-height="480"
     id="namedview37"
     showgrid="false"
     inkscape:zoom="0.30729167"
     inkscape:cx="512"
     inkscape:cy="384"
     inkscape:window-x="0"
     inkscape:window-y="25"
     inkscape:window-maximized="0"
     inkscape:current-layer="Layer_1" /><g
     id="g5"
     inkscape:export-filename="/home/stultus/Desktop/pears/logo_big.png"
     inkscape:export-xdpi="90"
     inkscape:export-ydpi="90"
     transform="matrix(1.9301564,0,0,1.9301564,-468.19749,-365.05887)"><g
       id="g7"><path
         d="m 568.3,328.7 1.8,-0.9 -3.1,-6.8 -1.8,0.9 c -10.6,4.9 -16.6,12.2 -19.8,17.4 -0.9,1.5 -1.7,3 -2.4,4.5 -1.1,-0.2 -2.3,-0.3 -3.5,-0.3 -8.8,0 -16.7,5.5 -19.7,13.7 -0.4,0.8 -3.6,7.7 -6.2,11.4 -0.7,0.9 -1.7,2.1 -2.8,3.5 -3.5,4.3 -8.9,10.8 -11.9,18.6 -0.1,0.2 -0.2,0.5 -0.3,0.7 -2.7,7.3 -2.3,15.3 1,22.3 3.3,7.1 9.1,12 16.5,14.7 3.2,1.2 6.6,1.4 10,1.4 0,0 0,0 0,0 12.2,0 23.3,-7.3 27.4,-18.8 0.1,-0.2 0.1,-0.3 0.2,-0.5 l 0,0 c 2.7,-8 2.8,-16.3 2.9,-21.9 0,-1.8 0,-3.3 0.1,-4.5 0.4,-4.5 2.4,-11.9 2.6,-12.8 1.8,-5 1.6,-10.3 -0.4,-15.2 -1.8,-4.2 -4.9,-7.7 -8.8,-10 0.5,-1.1 1.1,-2.2 1.8,-3.3 2.6,-4 7.6,-10 16.4,-14.1 z m -12.9,41.6 -0.1,0.2 c -0.1,0.3 -2.3,8.4 -2.7,13.6 -0.1,1.3 -0.1,2.9 -0.1,4.8 -0.1,5.6 -0.1,13.3 -2.7,20.7 l 0,0.1 c -0.1,0.2 -0.1,0 -0.2,0.1 -3.6,9.9 -13.1,16.2 -23.6,16.2 0,0 0,0 0,0 -2.9,0 -5.8,-0.2 -8.6,-1.2 -6.3,-2.3 -11.3,-6.8 -14.2,-12.9 -2.8,-6.1 -3.1,-12.8 -0.8,-19.1 0.1,-0.2 0.2,-0.4 0.2,-0.6 2.8,-7.3 7.7,-13.2 11.3,-17.5 1.2,-1.5 2.2,-2.7 3,-3.8 3,-4.2 6.5,-11.8 6.6,-12.1 l 0.1,-0.2 c 2.4,-6.7 8.8,-11.1 15.9,-11.1 1.4,0 2.8,0.2 4.2,0.5 l 1.5,0.4 1.4,0.7 c 7.9,3.7 11.8,13 8.8,21.2 z"
         id="path9"
         inkscape:connector-curvature="0"
         style="fill:#414141" /><path
         d="m 528.3,337 h 0.2 c 7.2,0 13.9,-2.5 18.9,-7.7 l 1.4,-1.2 -1.4,-1.3 c -5,-5.1 -11.7,-7.8 -18.8,-7.8 h -0.2 c -7.2,0 -13.9,3 -18.9,8.2 l -1.4,1.5 1.4,0.9 c 5,5.1 11.7,7.4 18.8,7.4 z m 0.1,-15 h 0.2 c 5.3,0 10.4,2.5 14.4,5.9 -4,3.5 -9.1,6.1 -14.5,6.1 h -0.2 c -5.3,0 -10.4,-2.5 -14.4,-5.9 4,-3.5 9.1,-6.1 14.5,-6.1 z"
         id="path11"
         inkscape:connector-curvature="0"
         style="fill:#414141" /><circle
         cx="533.29999"
         cy="364.70001"
         r="5"
         id="circle13"
         d="m 538.29999,364.70001 c 0,2.76143 -2.23858,5 -5,5 -2.76143,0 -5,-2.23857 -5,-5 0,-2.76142 2.23857,-5 5,-5 2.76142,0 5,2.23858 5,5 z"
         sodipodi:cx="533.29999"
         sodipodi:cy="364.70001"
         sodipodi:rx="5"
         sodipodi:ry="5"
         style="fill:#414141" /><circle
         cx="524.40002"
         cy="385.29999"
         r="8.8999996"
         id="circle15"
         d="m 533.30002,385.29999 c 0,4.91533 -3.98466,8.9 -8.9,8.9 -4.91533,0 -8.9,-3.98467 -8.9,-8.9 0,-4.91534 3.98467,-8.9 8.9,-8.9 4.91534,0 8.9,3.98466 8.9,8.9 z"
         sodipodi:cx="524.40002"
         sodipodi:cy="385.29999"
         sodipodi:rx="8.8999996"
         sodipodi:ry="8.8999996"
         style="fill:#414141" /></g><g
       id="g17"><g
         id="g19"><path
           d="m 429.2,405.2 c -1.2,3.6 -3,6.8 -5.3,9.5 -2.3,2.8 -5.1,5 -8.3,6.7 -3.3,1.7 -7,2.5 -11.1,2.5 -2,0 -4.1,-0.1 -6.1,-0.4 -2,-0.3 -4.1,-0.6 -6,-1 v 25.4 l -0.9,0.9 h -2.8 l -0.8,-0.9 v -75.7 l 0.8,-0.9 h 2.8 l 0.9,0.9 v 7.3 c 1.9,-2.9 4.3,-5.1 7.2,-6.7 2.9,-1.5 6.1,-2.3 9.6,-2.3 7.5,0 13.1,2.1 16.6,6.2 3.5,4.2 5.3,9.9 5.3,17.2 0,4 -0.6,7.7 -1.9,11.3 z m -3.6,-19.1 c -0.7,-2.4 -1.7,-4.5 -3.1,-6.2 -1.4,-1.7 -3.2,-3 -5.4,-4 -2.2,-0.9 -4.8,-1.4 -7.9,-1.4 -2.7,0 -5.1,0.5 -7.1,1.5 -2,1 -3.8,2.4 -5.2,4.2 -1.4,1.8 -2.5,3.8 -3.2,6.1 -0.7,2.3 -1.1,4.7 -1.1,7.2 v 24.8 c 1.9,0.7 3.9,1.2 5.9,1.4 2,0.2 4.1,0.3 6.1,0.3 3.6,0 6.7,-0.7 9.5,-2.2 2.7,-1.5 5,-3.4 6.9,-5.9 1.9,-2.4 3.3,-5.2 4.2,-8.3 0.9,-3.1 1.4,-6.3 1.4,-9.6 0,-2.8 -0.4,-5.5 -1,-7.9 z"
           id="path21"
           inkscape:connector-curvature="0"
           style="fill:#414141" /></g><g
         id="g23"><path
           d="m 484.1,396.5 c -6.3,0.2 -12.5,0.4 -18.7,0.6 -6.2,0.2 -12.5,0.3 -18.7,0.3 0,3.2 0.4,6.2 1.1,8.9 0.7,2.7 1.9,5.1 3.4,7.1 1.5,2 3.5,3.6 5.9,4.8 2.4,1.2 5.3,1.8 8.8,1.8 2,0 3.9,-0.3 5.8,-0.8 1.9,-0.5 3.6,-1.1 5.1,-1.7 1.5,-0.6 2.8,-1.2 3.8,-1.7 1,-0.5 1.6,-0.8 1.7,-0.8 0.3,0 0.5,0.2 0.6,0.5 0.1,0.4 0.2,0.8 0.2,1.2 0,0.4 0,0.9 0,1.3 0,0.4 -0.1,0.8 -0.1,1 l -0.4,0.8 c -1.1,0.7 -2.4,1.2 -3.8,1.8 -1.4,0.5 -2.9,0.9 -4.3,1.3 -1.5,0.3 -2.9,0.6 -4.4,0.8 -1.5,0.2 -2.8,0.3 -4.2,0.3 -4.5,0 -8.3,-0.7 -11.3,-2.1 -3,-1.4 -5.5,-3.3 -7.3,-5.8 -1.8,-2.5 -3.1,-5.5 -3.9,-8.9 -0.8,-3.5 -1.2,-7.3 -1.2,-11.6 0,-3.7 0.5,-7 1.5,-10.1 1,-3.1 2.5,-5.7 4.5,-7.9 2,-2.2 4.4,-3.9 7.3,-5.1 2.9,-1.2 6.3,-1.9 10.1,-1.9 3.8,0 7,0.7 9.5,2.1 2.5,1.4 4.5,3.3 6,5.6 1.5,2.3 2.5,5 3.1,8 0.6,3 0.9,6.1 0.9,9.4 l -1,0.8 z M 479.3,386 c -0.6,-2.2 -1.5,-4.1 -2.7,-5.8 -1.2,-1.7 -2.7,-3.1 -4.6,-4.1 -1.9,-1 -4,-1.5 -6.5,-1.5 -2.8,0 -5.3,0.5 -7.6,1.4 -2.3,1 -4.3,2.2 -5.9,3.9 -1.6,1.6 -2.9,3.6 -3.8,6 -0.9,2.3 -1.4,4.9 -1.5,7.6 h 3.2 c 5.1,0 10.2,-0.1 15.3,-0.2 5.1,-0.1 10.2,-0.3 15.3,-0.7 -0.2,-2.3 -0.6,-4.5 -1.2,-6.6 z"
           id="path25"
           inkscape:connector-curvature="0"
           style="fill:#414141" /></g></g><g
       id="g27"><g
         id="g29"><path
           d="m 596.8,376 c -0.7,-0.3 -1.5,-0.5 -2.4,-0.5 -0.9,0 -1.6,-0.1 -2.3,-0.1 -2,0 -3.9,0.4 -5.6,1.1 -1.8,0.7 -3.4,1.7 -4.7,3 -1.4,1.2 -2.4,2.7 -3.2,4.4 -0.8,1.7 -1.2,3.6 -1.2,5.6 v 32.8 l -0.9,0.9 h -2.8 l -0.9,-0.9 v -50.2 l 0.8,-0.9 h 2.8 l 0.9,0.9 v 7.1 c 2,-2.7 4.4,-4.8 7.2,-6.2 2.8,-1.5 5.9,-2.2 9.1,-2.2 0.7,0 1.3,0 1.9,0 0.6,0 1.2,0.1 1.8,0.2 l 0.8,0.9 v 3.3 l -1.3,0.8 z"
           id="path31"
           inkscape:connector-curvature="0"
           style="fill:#414141" /></g><g
         id="g33"><path
           d="m 634.6,416.9 c -1,1.7 -2.4,3.1 -4.1,4.1 -1.7,1.1 -3.6,1.8 -5.6,2.2 -2.1,0.4 -4.2,0.7 -6.3,0.7 -2.1,0 -4.5,-0.2 -7,-0.6 -2.6,-0.4 -4.8,-1 -6.8,-1.8 l -0.5,-0.7 v -3.6 c 0,-0.6 0.3,-0.9 0.8,-0.9 1.4,0.5 2.6,1 3.5,1.4 0.9,0.4 1.9,0.8 2.8,1.2 0.9,0.3 1.9,0.6 3.1,0.8 1.1,0.2 2.6,0.3 4.4,0.3 1.5,0 3,-0.2 4.5,-0.5 1.5,-0.3 2.9,-0.9 4.2,-1.6 1.2,-0.7 2.2,-1.7 3,-2.9 0.8,-1.2 1.2,-2.7 1.2,-4.4 0,-2.3 -0.7,-4.2 -2,-5.6 -1.4,-1.4 -3,-2.6 -5,-3.7 -2,-1 -4.2,-2 -6.6,-2.9 -2.4,-0.9 -4.6,-2 -6.6,-3.3 -2,-1.3 -3.7,-2.9 -5,-4.9 -1.4,-1.9 -2,-4.5 -2,-7.6 0,-2.2 0.5,-4.1 1.4,-5.6 0.9,-1.5 2.1,-2.8 3.6,-3.7 1.5,-0.9 3.1,-1.6 5,-2 1.9,-0.4 3.7,-0.6 5.6,-0.6 2.3,0 4.6,0.1 7,0.4 2.4,0.3 4.7,0.8 6.8,1.4 l 0.7,0.8 v 3.2 c 0,0.1 -0.1,0.3 -0.2,0.5 -0.1,0.2 -0.2,0.3 -0.4,0.3 -0.4,0 -1.2,-0.1 -2.1,-0.4 -1,-0.3 -2.1,-0.6 -3.4,-0.9 -1.3,-0.3 -2.6,-0.6 -4.1,-0.9 -1.5,-0.3 -2.9,-0.4 -4.3,-0.4 -1.3,0 -2.6,0.1 -3.9,0.4 -1.3,0.3 -2.5,0.7 -3.6,1.3 -1.1,0.6 -1.9,1.4 -2.6,2.5 -0.7,1 -1,2.3 -1,3.8 0,2.4 0.7,4.3 2,5.8 1.4,1.5 3,2.7 5,3.8 2,1.1 4.2,2.1 6.6,3 2.4,1 4.6,2.1 6.6,3.3 2,1.3 3.7,2.9 5,4.8 1.4,1.9 2,4.4 2,7.5 -0.2,2.3 -0.7,4.3 -1.7,6 z"
           id="path35"
           inkscape:connector-curvature="0"
           style="fill:#414141" /></g></g></g></svg>