<?xml version="1.0" encoding="UTF-8" standalone="no"?>
<!-- Created with Inkscape (http://www.inkscape.org/) -->

<svg
   xmlns:dc="http://purl.org/dc/elements/1.1/"
   xmlns:cc="http://creativecommons.org/ns#"
   xmlns:rdf="http://www.w3.org/1999/02/22-rdf-syntax-ns#"
   xmlns:svg="http://www.w3.org/2000/svg"
   xmlns="http://www.w3.org/2000/svg"
   version="1.1"
   width="100%"
   height="100%"
   viewBox="0 0 1024 768"
   id="Layer_1"
   xml:space="preserve"><metadata
     id="metadata41"><rdf:RDF><cc:Work
         rdf:about=""><dc:format>image/svg+xml</dc:format><dc:type
           rdf:resource="http://purl.org/dc/dcmitype/StillImage" /><dc:title></dc:title></cc:Work></rdf:RDF></metadata><defs
     id="defs39" /><g
     id="g5"><g
       transform="matrix(3.525852,0,0,3.525852,-1368.7907,-968.45866)"
       id="g7"><path
         d="m 568.3,328.7 1.8,-0.9 -3.1,-6.8 -1.8,0.9 c -10.6,4.9 -16.6,12.2 -19.8,17.4 -0.9,1.5 -1.7,3 -2.4,4.5 -1.1,-0.2 -2.3,-0.3 -3.5,-0.3 -8.8,0 -16.7,5.5 -19.7,13.7 -0.4,0.8 -3.6,7.7 -6.2,11.4 -0.7,0.9 -1.7,2.1 -2.8,3.5 -3.5,4.3 -8.9,10.8 -11.9,18.6 -0.1,0.2 -0.2,0.5 -0.3,0.7 -2.7,7.3 -2.3,15.3 1,22.3 3.3,7.1 9.1,12 16.5,14.7 3.2,1.2 6.6,1.4 10,1.4 0,0 0,0 0,0 12.2,0 23.3,-7.3 27.4,-18.8 0.1,-0.2 0.1,-0.3 0.2,-0.5 l 0,0 c 2.7,-8 2.8,-16.3 2.9,-21.9 0,-1.8 0,-3.3 0.1,-4.5 0.4,-4.5 2.4,-11.9 2.6,-12.8 1.8,-5 1.6,-10.3 -0.4,-15.2 -1.8,-4.2 -4.9,-7.7 -8.8,-10 0.5,-1.1 1.1,-2.2 1.8,-3.3 2.6,-4 7.6,-10 16.4,-14.1 z m -12.9,41.6 -0.1,0.2 c -0.1,0.3 -2.3,8.4 -2.7,13.6 -0.1,1.3 -0.1,2.9 -0.1,4.8 -0.1,5.6 -0.1,13.3 -2.7,20.7 l 0,0.1 c -0.1,0.2 -0.1,0 -0.2,0.1 -3.6,9.9 -13.1,16.2 -23.6,16.2 0,0 0,0 0,0 -2.9,0 -5.8,-0.2 -8.6,-1.2 -6.3,-2.3 -11.3,-6.8 -14.2,-12.9 -2.8,-6.1 -3.1,-12.8 -0.8,-19.1 0.1,-0.2 0.2,-0.4 0.2,-0.6 2.8,-7.3 7.7,-13.2 11.3,-17.5 1.2,-1.5 2.2,-2.7 3,-3.8 3,-4.2 6.5,-11.8 6.6,-12.1 l 0.1,-0.2 c 2.4,-6.7 8.8,-11.1 15.9,-11.1 1.4,0 2.8,0.2 4.2,0.5 l 1.5,0.4 1.4,0.7 c 7.9,3.7 11.8,13 8.8,21.2 z"
         id="path9"
         style="fill:#414141" /><path
         d="m 528.3,337 h 0.2 c 7.2,0 13.9,-2.5 18.9,-7.7 l 1.4,-1.2 -1.4,-1.3 c -5,-5.1 -11.7,-7.8 -18.8,-7.8 h -0.2 c -7.2,0 -13.9,3 -18.9,8.2 l -1.4,1.5 1.4,0.9 c 5,5.1 11.7,7.4 18.8,7.4 z m 0.1,-15 h 0.2 c 5.3,0 10.4,2.5 14.4,5.9 -4,3.5 -9.1,6.1 -14.5,6.1 h -0.2 c -5.3,0 -10.4,-2.5 -14.4,-5.9 4,-3.5 9.1,-6.1 14.5,-6.1 z"
         id="path11"
         style="fill:#414141" /><circle
         cx="533.29999"
         cy="364.70001"
         r="5"
         id="circle13"
         style="fill:#414141" /><circle
         cx="524.40002"
         cy="385.29999"
         r="8.8999996"
         id="circle15"
         style="fill:#414141" /></g></g></svg>