<svg width="1080" height="1080" viewBox="0 0 1080 1080" fill="none" xmlns="http://www.w3.org/2000/svg">
<g clip-path="url(#clip0_1_50)">
<path d="M490.897 173.447H492.821C561.626 173.447 625.634 149.572 673.41 99.8721C680.541 93.7662 680.757 82.8093 673.873 76.4267L673.41 75.9977C625.607 27.2461 561.599 1.44757 493.742 1.44757H491.818C423.013 1.44757 359.004 30.1186 311.228 79.7916L308.698 82.5016C303.046 88.5531 304.26 98.2459 311.228 102.718C359.004 151.442 423.013 173.42 490.869 173.42L490.897 173.447ZM491.845 30.1186H493.769C541.305 30.1186 587.146 51.1486 624.19 80.5954C628.014 83.6354 628.055 89.3818 624.276 92.4783C587.211 122.852 541.259 144.776 492.821 144.776H490.897C443.361 144.776 397.52 123.746 360.476 94.2987C356.651 91.2588 356.61 85.5124 360.389 82.4159C397.455 52.0423 443.407 30.1186 491.845 30.1186Z" fill="currentColor"/>
<path d="M873.078 94.1271C882.679 89.3343 886.76 77.7997 882.309 68.0357L868.643 38.0534C864.284 28.4897 852.862 24.4486 843.459 29.143C742.189 75.9706 684.847 145.724 654.279 195.397C645.688 209.733 638.046 224.068 631.353 238.404C620.838 236.48 609.375 235.531 597.912 235.531C513.823 235.531 438.352 288.076 409.681 366.42C405.86 374.062 375.292 439.995 350.441 475.332C343.748 483.923 334.209 495.386 323.695 508.773C290.254 549.855 238.657 611.967 209.986 686.49C209.038 688.414 208.062 691.259 207.113 693.183C181.315 762.937 185.136 839.384 216.68 906.265C248.223 974.095 303.641 1020.92 374.343 1046.72C404.911 1058.18 437.403 1060.11 469.895 1060.11C586.476 1060.11 692.516 990.354 731.701 880.467C732.65 878.543 732.65 877.594 733.625 875.697C759.424 799.25 760.372 719.958 761.348 666.437C761.348 649.228 761.348 634.893 762.296 623.43C766.117 580.423 785.222 509.721 787.146 501.131C804.354 453.355 802.43 402.706 783.325 355.906C766.117 315.772 736.498 282.331 699.236 260.354C704.006 249.839 709.751 239.325 716.444 228.81C741.294 190.6 789.07 133.258 873.132 94.1L873.078 94.1271ZM749.831 491.619L748.882 493.543C747.934 496.416 726.905 573.811 723.084 623.484C722.135 635.896 722.135 651.18 722.135 669.336C721.187 722.83 721.187 796.405 696.337 867.134V868.082C695.388 870.006 695.388 868.082 694.413 869.031C660.024 963.634 569.241 1023.82 468.92 1023.82C441.197 1023.82 413.502 1021.9 386.755 1012.36C326.567 990.381 278.791 947.375 251.068 889.111C224.321 830.821 221.449 766.812 243.426 706.625C244.375 704.701 245.351 702.804 245.351 700.88C272.098 631.126 318.925 574.76 353.314 533.677C364.777 519.342 374.343 507.879 381.985 497.364C410.656 457.23 444.097 384.604 445.045 381.759L445.994 379.835C468.92 315.826 530.083 273.768 597.912 273.768C611.299 273.768 624.659 275.692 638.046 278.538L652.382 282.359L665.769 289.052C741.24 324.417 778.529 413.275 749.858 491.619H749.831Z" fill="currentColor"/>
<path d="M477.055 552.399C511.844 553.019 542.533 583.578 543.153 548.79C543.773 514.002 516.074 485.297 481.286 484.677C446.498 484.057 417.793 511.756 417.173 546.545C416.553 581.333 442.267 551.779 477.055 552.399Z" fill="currentColor"/>
<path d="M623.946 592.212C652.273 612.416 660.273 654.98 680.477 626.653C700.681 598.326 694.096 558.984 665.769 538.78C637.442 518.576 598.1 525.161 577.896 553.488C557.692 581.815 595.619 572.008 623.946 592.212Z" fill="currentColor"/>
<path d="M386.015 751.536C374.98 747.964 368.771 735.995 374.238 725.765C378.223 718.308 383.006 711.282 388.516 704.816C398.58 693.005 410.873 683.292 424.691 676.231C438.509 669.171 453.583 664.901 469.051 663.666C484.519 662.431 500.079 664.255 514.843 669.034C529.606 673.812 543.284 681.452 555.095 691.516C566.906 701.58 576.619 713.873 583.68 727.691C590.74 741.509 595.01 756.583 596.245 772.051C596.921 780.519 596.68 789.015 595.54 797.393C593.976 808.886 581.932 814.947 570.896 811.376V811.376C559.86 807.804 554.13 795.884 554.562 784.292C554.673 781.331 554.61 778.36 554.373 775.394C553.577 765.425 550.826 755.709 546.275 746.803C541.724 737.897 535.464 729.974 527.852 723.488C520.239 717.001 511.423 712.077 501.908 708.997C492.393 705.917 482.364 704.742 472.394 705.538C462.424 706.334 452.709 709.086 443.803 713.636C434.897 718.187 426.974 724.447 420.487 732.06C418.558 734.324 416.766 736.695 415.121 739.16C408.679 748.806 397.051 755.108 386.015 751.536V751.536Z" fill="currentColor"/>
</g>
<defs>
<clipPath id="clip0_1_50">
<rect width="1080" height="1080" fill="white"/>
</clipPath>
</defs>
</svg>
